<?xml version="1.0" encoding="utf-8"?>
<!-- Generator: Adobe Illustrator 22.0.1, SVG Export Plug-In . SVG Version: 6.00 Build 0)  -->
<svg version="1.1" id="Layer_1" xmlns="http://www.w3.org/2000/svg" xmlns:xlink="http://www.w3.org/1999/xlink" x="0px" y="0px"
	 viewBox="0 0 763.1 281.8" style="enable-background:new 0 0 763.1 281.8;" xml:space="preserve">
<style type="text/css">
	.st0{fill:#FFC908;}
</style>
<path class="st0" d="M0,0v281.8h763.1V0H0z M169.1,206.8c-10.4,8.6-24.1,13-41.1,13c-24.5,0-46.6-9.1-66.3-27.3l20.6-25.3
	c16.7,14.6,32.1,21.9,46.3,21.9c6.3,0,11.3-1.4,15-4.1c3.6-2.7,5.4-6.4,5.4-11.1c0-4.7-1.9-8.3-5.8-11.1c-3.8-2.7-11.4-5.5-22.8-8.3
	c-18-4.3-31.2-9.9-39.6-16.7c-8.3-6.9-12.5-17.7-12.5-32.4c0-14.7,5.3-26,15.8-34c10.6-8,23.7-12,39.6-12c10.3,0,20.7,1.8,31,5.3
	c10.3,3.5,19.4,8.6,27,15.1l-17.5,25.3C150.9,95,137,89.9,122.6,89.9c-5.8,0-10.3,1.4-13.6,4.1c-3.3,2.7-5,6.4-5,10.9
	c0,4.5,2,8.1,6.1,10.7c4.1,2.7,13.4,5.8,28.1,9.4c14.7,3.6,26.1,9.1,34.2,16.3c8.1,7.2,12.2,17.8,12.2,31.7
	C184.7,186.9,179.5,198.2,169.1,206.8z M306.1,218H192V63.1h111.7v30.8h-77.1v31.9h69.4v29.5h-69.4v32.1h79.5V218z M415.4,218H314.8
	V63.1h34.6v124.1h66V218z M524.8,93.5H453V127h68.2v30.4H453V218h-34.6V63.1h106.4V93.5z M566.5,218h-34.6V63.1h34.6V218z
	 M696.5,218H582.4V63.1h111.7v30.8H617v31.9h69.4v29.5H617v32.1h79.6V218z"/>
</svg>
